<svg xmlns="http://www.w3.org/2000/svg" viewBox="0 0 200 200"><g id="SvgjsG1010" transform="translate(33, 33) scale(3.2862793859811994)" rel="inversefill" name="monogram_container" feature="monogram_container" xmlns:name="monogram_container_inversefill" fill="#4aa7f1">   <title xmlns="http://www.w3.org/2000/svg">assets</title>   <circle xmlns="http://www.w3.org/2000/svg" cx="25" cy="25" r="25"></circle> </g><g id="SvgjsG1012" name="monogram" feature="monogram" rel="mainfill" xmlns:name="monogram_mainfill" fill="#ffffff" transform="translate(92.06988773232526, 53.58775485464415) scale(3.7647592072842273)"><path d="M9.9 13.7 l-0.02 0.06 c-0.16 0.46 -0.44 1.4 -0.92 2.82 s-0.84 2.46 -1 3.12 l-0.28 1.1 c-0.26 1.04 -0.46 1.72 -0.72 2.26 c-0.06 0.18 -0.32 0.8 -0.4 0.86 c-0.04 0.02 -0.14 -0.02 -0.3 -0.1 c-0.3 -0.16 -0.32 -0.32 -0.38 -0.54 c-0.08 -0.24 -0.02 -0.7 -0.08 -1 c-0.02 -0.18 -0.06 -0.56 -0.2 -1.14 c-0.12 -0.58 -0.18 -1.04 -0.18 -1.38 c0 -0.16 0.02 -0.38 0.06 -0.68 s0.06 -0.52 0.06 -0.62 c0.02 -0.16 -0.04 -0.54 -0.04 -0.64 c-0.22 -0.14 -0.4 -0.26 -0.54 -0.4 c-0.14 -0.16 -0.4 -0.58 -0.54 -0.68 c-0.06 -0.08 -0.34 -0.22 -0.42 -0.3 c-0.18 -0.18 -0.42 -0.5 -0.7 -0.92 c-0.3 -0.44 -0.48 -0.76 -0.62 -0.94 c-0.06 -0.06 -0.26 -0.36 -0.62 -0.9 c-0.18 -0.24 -0.58 -0.74 -0.66 -0.98 c-0.12 -0.18 -0.24 -0.74 -0.3 -0.9 l-0.18 -0.36 c-0.1 -0.22 -0.14 -0.38 -0.14 -0.48 c-0.02 -0.24 0.14 -0.88 0.3 -1.04 c0.1 -0.12 0.26 -0.24 0.48 -0.38 c0.22 -0.1 0.6 -0.26 0.7 -0.26 c0.04 0 0.16 0.08 0.36 0.22 c0.24 0.16 0.56 0.46 0.98 0.88 c0.22 0.22 0.5 0.78 0.58 0.86 c0.1 0.14 0.44 0.44 0.58 0.62 l0.02 0.04 c0.46 0.6 0.94 1.44 1.46 2.5 l0.06 -0.24 c0.1 -0.42 0.3 -0.98 0.58 -1.66 c0.34 -0.82 0.64 -1.38 0.86 -1.68 c0.16 -0.22 0.52 -0.58 1.08 -1.06 c0.54 -0.48 0.92 -0.76 1.16 -0.84 c0.16 -0.06 0.4 -0.06 0.72 0 c0.32 0.04 0.52 0.1 0.62 0.18 c0.1 0.12 0.2 0.3 0.3 0.54 c0.1 0.34 0.14 0.58 0.12 0.74 c0 0.02 -0.16 0.24 -0.2 0.32 l-0.68 1.06 c-0.1 0.22 -0.52 0.74 -0.62 0.96 c-0.1 0.18 -0.2 0.72 -0.34 0.98 z"></path></g></svg>