<svg xmlns="http://www.w3.org/2000/svg" viewBox="0 0 600 300"><g id="SvgjsG1010" transform="translate(33, 33) scale(3.2862793859811994)" rel="inversefill" name="monogram_container" feature="monogram_container" xmlns:name="monogram_container_inversefill" fill="#4aa7f1">   <title xmlns="http://www.w3.org/2000/svg">assets</title>   <circle xmlns="http://www.w3.org/2000/svg" cx="25" cy="25" r="25"></circle> </g><g id="main_text" rel="mainfill" name="main_text" feature="main_text" xmlns:name="mainText_mainfill" groupname="main_text" fill="#4aa7f1" transform="translate(231.58280493564692, -33.66931007101306) scale(8.793357492372046)"><path d="M-0.18 13.879999999999999 c0 -2.28 0.58 -3.46 1.62 -3.94 c0.84 -0.4 0.6 0.6 0.6 3.7 c0 0.58 -0.02 2.02 -0.02 2.7 c0 2.2 -0.12 3.1 0.8 3.04 c0.92 -0.08 1.46 -2.18 1.52 -5.4 l0 -0.64 c0.08 -1.94 0.54 -2.92 1.62 -3.4 c0.84 -0.4 0.6 0.6 0.6 3.7 l0 6 c0 2.7 -1.92 4.46 -3.78 4.42 c-1.34 -0.02 -2.84 -0.76 -2.82 -2.06 c0 -0.86 1.14 -1.42 1.84 -1.48 c0.76 -0.08 0.72 0.04 0.38 0.78 c-0.64 1.36 -0.4 2.28 0.76 2.28 c1.38 0 1.4 -1.56 1.4 -3.94 l0 -1.86 c-0.3 1.4 -0.82 2.22 -1.68 2.38 c-1.56 0.28 -2.84 -1.16 -2.84 -3.82 l0 -2.46 z M9.86 19.98 c-1.46 -0.06 -2.66 -1.2 -2.66 -2.96 l0 -3.14 c0.02 -2.28 0.6 -3.46 1.62 -3.94 c0.84 -0.4 0.6 0.6 0.6 3.7 l0 0.28 c0.24 -0.82 0.58 -1.26 1.18 -1.32 c1.16 -0.08 2.46 0.76 2.46 3.4 s-1.68 4.06 -3.2 3.98 z M10.32 13.120000000000001 c-0.42 0.08 -0.7 1.1 -0.9 2.66 l0 1 c0 2.08 0.08 2.72 0.6 2.72 c0.54 0 0.82 -1.46 0.82 -3.5 c0 -1.76 -0.04 -2.94 -0.52 -2.88 z M18.98 15.58 c-0.84 1.02 -2.22 1.58 -3.16 1.86 c0.12 1.24 0.52 2 1.42 2.04 c1.08 0.06 2.82 -0.78 3.02 -2.36 c0.06 -0.44 0.44 -0.42 0.38 0.1 c-0.26 1.88 -2.1 2.8 -3.6 2.78 c-1.48 -0.04 -3.48 -0.82 -3.48 -3.46 s1.82 -3.94 3.66 -3.94 c2.12 0 2.58 1.98 1.76 2.98 z M15.780000000000001 16.54 l0 0.34 c0.32 -0.18 0.66 -0.42 1.04 -0.84 c1.24 -1.4 1.28 -2.94 0.26 -2.94 c-0.88 0 -1.3 1 -1.3 3.44 z M19.700000000000003 16.6 c0 -2.42 0.56 -3.46 1.6 -3.96 c0.52 -0.24 0.64 0.22 0.64 1.06 c0.3 -0.74 0.76 -1.14 1.38 -1.28 c1.26 -0.26 2.16 0.42 2.08 1.6 c-0.06 0.96 -1.1 1.54 -2.06 1.54 c-0.76 -0.02 -0.76 -0.22 -0.32 -0.92 c0.9 -1.44 0.78 -1.88 0.26 -1.78 c-0.66 0.12 -1.38 1.14 -1.38 3.66 c0 0.56 0.02 0.96 0.02 1.1 c0 1.76 -1.2 2.42 -1.82 2.36 s-0.4 -0.32 -0.4 -1.56 l0 -1.82 z M25.460000000000004 16.6 c0 -2.42 0.56 -3.46 1.6 -3.96 c0.52 -0.24 0.64 0.22 0.64 1.06 c0.3 -0.74 0.76 -1.14 1.38 -1.28 c1.26 -0.26 2.16 0.42 2.08 1.6 c-0.06 0.96 -1.1 1.54 -2.06 1.54 c-0.76 -0.02 -0.76 -0.22 -0.32 -0.92 c0.9 -1.44 0.78 -1.88 0.26 -1.78 c-0.66 0.12 -1.38 1.14 -1.38 3.66 c0 0.56 0.02 0.96 0.02 1.1 c0 1.76 -1.2 2.42 -1.82 2.36 s-0.4 -0.32 -0.4 -1.56 l0 -1.82 z M32.900000000000006 13.46 c0.8 -0.36 0.6 0.86 0.6 2.72 l0 0.42 c0 1.7 -0.04 2.84 0.6 2.88 c0.64 0.02 1.06 -0.7 1.26 -2.36 c0.06 -0.44 0.46 -0.42 0.38 0.1 c-0.26 2 -1 2.92 -2.12 2.9 c-1 -0.02 -2.34 -0.84 -2.34 -3.52 c0 -1.68 0.56 -2.64 1.62 -3.14 z M33.980000000000004 11.56 c0 0.82 -0.64 1.36 -1.4 1.36 s-1.4 -0.54 -1.4 -1.36 s0.64 -1.36 1.4 -1.36 s1.4 0.54 1.4 1.36 z"></path></g><g id="SvgjsG1012" name="monogram" feature="monogram" rel="mainfill" xmlns:name="monogram_mainfill" fill="#ffffff" transform="translate(92.06988773232526, 53.58775485464415) scale(3.7647592072842273)"><path d="M9.9 13.7 l-0.02 0.06 c-0.16 0.46 -0.44 1.4 -0.92 2.82 s-0.84 2.46 -1 3.12 l-0.28 1.1 c-0.26 1.04 -0.46 1.72 -0.72 2.26 c-0.06 0.18 -0.32 0.8 -0.4 0.86 c-0.04 0.02 -0.14 -0.02 -0.3 -0.1 c-0.3 -0.16 -0.32 -0.32 -0.38 -0.54 c-0.08 -0.24 -0.02 -0.7 -0.08 -1 c-0.02 -0.18 -0.06 -0.56 -0.2 -1.14 c-0.12 -0.58 -0.18 -1.04 -0.18 -1.38 c0 -0.16 0.02 -0.38 0.06 -0.68 s0.06 -0.52 0.06 -0.62 c0.02 -0.16 -0.04 -0.54 -0.04 -0.64 c-0.22 -0.14 -0.4 -0.26 -0.54 -0.4 c-0.14 -0.16 -0.4 -0.58 -0.54 -0.68 c-0.06 -0.08 -0.34 -0.22 -0.42 -0.3 c-0.18 -0.18 -0.42 -0.5 -0.7 -0.92 c-0.3 -0.44 -0.48 -0.76 -0.62 -0.94 c-0.06 -0.06 -0.26 -0.36 -0.62 -0.9 c-0.18 -0.24 -0.58 -0.74 -0.66 -0.98 c-0.12 -0.18 -0.24 -0.74 -0.3 -0.9 l-0.18 -0.36 c-0.1 -0.22 -0.14 -0.38 -0.14 -0.48 c-0.02 -0.24 0.14 -0.88 0.3 -1.04 c0.1 -0.12 0.26 -0.24 0.48 -0.38 c0.22 -0.1 0.6 -0.26 0.7 -0.26 c0.04 0 0.16 0.08 0.36 0.22 c0.24 0.16 0.56 0.46 0.98 0.88 c0.22 0.22 0.5 0.78 0.58 0.86 c0.1 0.14 0.44 0.44 0.58 0.62 l0.02 0.04 c0.46 0.6 0.94 1.44 1.46 2.5 l0.06 -0.24 c0.1 -0.42 0.3 -0.98 0.58 -1.66 c0.34 -0.82 0.64 -1.38 0.86 -1.68 c0.16 -0.22 0.52 -0.58 1.08 -1.06 c0.54 -0.48 0.92 -0.76 1.16 -0.84 c0.16 -0.06 0.4 -0.06 0.72 0 c0.32 0.04 0.52 0.1 0.62 0.18 c0.1 0.12 0.2 0.3 0.3 0.54 c0.1 0.34 0.14 0.58 0.12 0.74 c0 0.02 -0.16 0.24 -0.2 0.32 l-0.68 1.06 c-0.1 0.22 -0.52 0.74 -0.62 0.96 c-0.1 0.18 -0.2 0.72 -0.34 0.98 z"></path></g></svg>